<mxfile host="app.diagrams.net" modified="2020-09-23T07:06:21.061Z" agent="5.0 (Windows NT 10.0; Win64; x64) AppleWebKit/537.36 (KHTML, like Gecko) Chrome/85.0.4183.102 Safari/537.36 Edg/85.0.564.51" etag="RwOjtQtta7lbOvWIjUwh" version="13.7.1" type="github">
  <diagram name="Page-1" id="e7e014a7-5840-1c2e-5031-d8a46d1fe8dd">
    <mxGraphModel dx="1278" dy="1406" grid="1" gridSize="10" guides="1" tooltips="1" connect="1" arrows="1" fold="1" page="1" pageScale="1" pageWidth="1169" pageHeight="826" background="#ffffff" math="0" shadow="0">
      <root>
        <mxCell id="0" />
        <mxCell id="1" parent="0" />
        <mxCell id="awL5sAX0gJgKR-uic9J5-42" value="&lt;p style=&quot;margin: 0px ; margin-top: 4px ; text-align: center&quot;&gt;&lt;b&gt;Inventory&lt;/b&gt;&lt;/p&gt;&lt;hr size=&quot;1&quot;&gt;&lt;p style=&quot;margin: 0px ; margin-left: 4px&quot;&gt;+ CarID int (PK)&lt;/p&gt;&lt;p style=&quot;margin: 0px ; margin-left: 4px&quot;&gt;&lt;br&gt;&lt;/p&gt;&lt;p style=&quot;margin: 0px ; margin-left: 4px&quot;&gt;+ Make varChar(50)&lt;/p&gt;&lt;p style=&quot;margin: 0px ; margin-left: 4px&quot;&gt;+ Color varChar(50)&lt;/p&gt;&lt;p style=&quot;margin: 0px ; margin-left: 4px&quot;&gt;+ PetName varChar(50)&lt;/p&gt;" style="verticalAlign=top;align=left;overflow=fill;fontSize=12;fontFamily=Helvetica;html=1;" vertex="1" parent="1">
          <mxGeometry x="360" width="160" height="110" as="geometry" />
        </mxCell>
        <mxCell id="awL5sAX0gJgKR-uic9J5-43" value="&lt;p style=&quot;margin: 0px ; margin-top: 4px ; text-align: center&quot;&gt;&lt;b&gt;Order&lt;/b&gt;&lt;/p&gt;&lt;hr size=&quot;1&quot;&gt;&lt;p style=&quot;margin: 0px ; margin-left: 4px&quot;&gt;+ OrderID (PK)&lt;/p&gt;&lt;p style=&quot;margin: 0px ; margin-left: 4px&quot;&gt;&lt;span&gt;+ CarID (FK)&lt;/span&gt;&lt;/p&gt;&lt;p style=&quot;margin: 0px ; margin-left: 4px&quot;&gt;&lt;span&gt;+ CustID (FK)&lt;/span&gt;&lt;/p&gt;" style="verticalAlign=top;align=left;overflow=fill;fontSize=12;fontFamily=Helvetica;html=1;" vertex="1" parent="1">
          <mxGeometry x="40" width="160" height="90" as="geometry" />
        </mxCell>
        <mxCell id="awL5sAX0gJgKR-uic9J5-44" value="&lt;p style=&quot;margin: 0px ; margin-top: 4px ; text-align: center&quot;&gt;&lt;b&gt;Custommer&lt;/b&gt;&lt;/p&gt;&lt;hr size=&quot;1&quot;&gt;&lt;p style=&quot;margin: 0px ; margin-left: 4px&quot;&gt;+ CustID int (PK)&amp;nbsp;&lt;/p&gt;&lt;p style=&quot;margin: 0px ; margin-left: 4px&quot;&gt;&lt;span&gt;&lt;br&gt;&lt;/span&gt;&lt;/p&gt;&lt;p style=&quot;margin: 0px ; margin-left: 4px&quot;&gt;&lt;span&gt;+ FirstName: varChar(50)&lt;/span&gt;&lt;br&gt;&lt;/p&gt;&lt;p style=&quot;margin: 0px ; margin-left: 4px&quot;&gt;&lt;span&gt;+ LastName: varChar (50)&lt;/span&gt;&lt;br&gt;&lt;/p&gt;" style="verticalAlign=top;align=left;overflow=fill;fontSize=12;fontFamily=Helvetica;html=1;" vertex="1" parent="1">
          <mxGeometry x="40" y="240" width="160" height="110" as="geometry" />
        </mxCell>
        <mxCell id="awL5sAX0gJgKR-uic9J5-45" value="" style="endArrow=block;startArrow=block;endFill=1;startFill=1;html=1;" edge="1" parent="1">
          <mxGeometry width="160" relative="1" as="geometry">
            <mxPoint x="200" y="54.5" as="sourcePoint" />
            <mxPoint x="360" y="54.5" as="targetPoint" />
            <Array as="points">
              <mxPoint x="280" y="54.5" />
            </Array>
          </mxGeometry>
        </mxCell>
        <mxCell id="awL5sAX0gJgKR-uic9J5-46" value="" style="endArrow=block;startArrow=block;endFill=1;startFill=1;html=1;entryX=0.5;entryY=1;entryDx=0;entryDy=0;exitX=0.5;exitY=0;exitDx=0;exitDy=0;" edge="1" parent="1" source="awL5sAX0gJgKR-uic9J5-44" target="awL5sAX0gJgKR-uic9J5-43">
          <mxGeometry width="160" relative="1" as="geometry">
            <mxPoint x="50" y="160" as="sourcePoint" />
            <mxPoint x="210" y="160" as="targetPoint" />
          </mxGeometry>
        </mxCell>
        <mxCell id="awL5sAX0gJgKR-uic9J5-47" value="1+" style="text;html=1;strokeColor=none;fillColor=none;align=center;verticalAlign=middle;whiteSpace=wrap;rounded=0;" vertex="1" parent="1">
          <mxGeometry x="130" y="210" width="40" height="20" as="geometry" />
        </mxCell>
        <mxCell id="awL5sAX0gJgKR-uic9J5-48" value="1+" style="text;html=1;strokeColor=none;fillColor=none;align=center;verticalAlign=middle;whiteSpace=wrap;rounded=0;" vertex="1" parent="1">
          <mxGeometry x="320" y="30" width="40" height="20" as="geometry" />
        </mxCell>
        <mxCell id="awL5sAX0gJgKR-uic9J5-49" value="&lt;img src=&quot;https://wikimedia.org/api/rest_v1/media/math/render/svg/c26c105004f30c27aa7c2a9c601550a4183b1f21&quot; class=&quot;mwe-math-fallback-image-inline&quot; alt=&quot;\infty &quot; style=&quot;border: 0px ; vertical-align: -0.338ex ; margin: 0px ; display: inline-block ; color: rgb(32 , 33 , 34) ; font-family: sans-serif ; font-size: 14px ; background-color: rgb(255 , 255 , 255) ; width: 2.324ex ; height: 1.676ex&quot;&gt;" style="text;html=1;strokeColor=none;fillColor=none;align=center;verticalAlign=middle;whiteSpace=wrap;rounded=0;" vertex="1" parent="1">
          <mxGeometry x="200" y="30" width="40" height="20" as="geometry" />
        </mxCell>
        <mxCell id="awL5sAX0gJgKR-uic9J5-50" value="&lt;img src=&quot;https://wikimedia.org/api/rest_v1/media/math/render/svg/c26c105004f30c27aa7c2a9c601550a4183b1f21&quot; class=&quot;mwe-math-fallback-image-inline&quot; alt=&quot;\infty &quot; style=&quot;border: 0px ; vertical-align: -0.338ex ; margin: 0px ; display: inline-block ; color: rgb(32 , 33 , 34) ; font-family: sans-serif ; font-size: 14px ; background-color: rgb(255 , 255 , 255) ; width: 2.324ex ; height: 1.676ex&quot;&gt;" style="text;html=1;strokeColor=none;fillColor=none;align=center;verticalAlign=middle;whiteSpace=wrap;rounded=0;rotation=0;" vertex="1" parent="1">
          <mxGeometry x="120" y="100" width="40" height="20" as="geometry" />
        </mxCell>
        <mxCell id="awL5sAX0gJgKR-uic9J5-51" value="" style="endArrow=none;html=1;edgeStyle=orthogonalEdgeStyle;" edge="1" parent="1">
          <mxGeometry relative="1" as="geometry">
            <mxPoint x="520" y="60" as="sourcePoint" />
            <mxPoint x="680" y="60" as="targetPoint" />
          </mxGeometry>
        </mxCell>
        <mxCell id="awL5sAX0gJgKR-uic9J5-52" value="Owner" style="edgeLabel;resizable=0;html=1;align=left;verticalAlign=bottom;" connectable="0" vertex="1" parent="awL5sAX0gJgKR-uic9J5-51">
          <mxGeometry x="-1" relative="1" as="geometry">
            <mxPoint y="-10" as="offset" />
          </mxGeometry>
        </mxCell>
        <mxCell id="awL5sAX0gJgKR-uic9J5-55" value="Object" style="html=1;" vertex="1" parent="1">
          <mxGeometry x="680" y="-30" width="320" height="310" as="geometry" />
        </mxCell>
        <mxCell id="awL5sAX0gJgKR-uic9J5-56" value="" style="line;strokeWidth=4;direction=south;html=1;perimeter=backbonePerimeter;points=[];outlineConnect=0;" vertex="1" parent="1">
          <mxGeometry x="750" y="-30" width="10" height="310" as="geometry" />
        </mxCell>
        <mxCell id="awL5sAX0gJgKR-uic9J5-58" value="" style="line;strokeWidth=4;direction=south;html=1;perimeter=backbonePerimeter;points=[];outlineConnect=0;" vertex="1" parent="1">
          <mxGeometry x="920" y="-30" width="10" height="310" as="geometry" />
        </mxCell>
        <mxCell id="awL5sAX0gJgKR-uic9J5-59" value="" style="line;strokeWidth=4;direction=south;html=1;perimeter=backbonePerimeter;points=[];outlineConnect=0;" vertex="1" parent="1">
          <mxGeometry x="835" y="-30" width="10" height="310" as="geometry" />
        </mxCell>
        <mxCell id="awL5sAX0gJgKR-uic9J5-60" value="" style="line;strokeWidth=2;html=1;" vertex="1" parent="1">
          <mxGeometry x="680" width="320" height="10" as="geometry" />
        </mxCell>
        <mxCell id="awL5sAX0gJgKR-uic9J5-61" value="" style="line;strokeWidth=2;html=1;" vertex="1" parent="1">
          <mxGeometry x="680" y="40" width="320" height="10" as="geometry" />
        </mxCell>
        <mxCell id="awL5sAX0gJgKR-uic9J5-62" value="" style="line;strokeWidth=2;html=1;" vertex="1" parent="1">
          <mxGeometry x="680" y="80" width="320" height="10" as="geometry" />
        </mxCell>
        <mxCell id="awL5sAX0gJgKR-uic9J5-63" value="" style="line;strokeWidth=2;html=1;" vertex="1" parent="1">
          <mxGeometry x="680" y="120" width="320" height="10" as="geometry" />
        </mxCell>
        <mxCell id="awL5sAX0gJgKR-uic9J5-64" value="" style="line;strokeWidth=2;html=1;" vertex="1" parent="1">
          <mxGeometry x="680" y="160" width="320" height="10" as="geometry" />
        </mxCell>
        <mxCell id="awL5sAX0gJgKR-uic9J5-65" value="" style="line;strokeWidth=2;html=1;" vertex="1" parent="1">
          <mxGeometry x="680" y="200" width="320" height="10" as="geometry" />
        </mxCell>
        <mxCell id="awL5sAX0gJgKR-uic9J5-66" value="" style="line;strokeWidth=2;html=1;" vertex="1" parent="1">
          <mxGeometry x="680" y="240" width="320" height="10" as="geometry" />
        </mxCell>
        <mxCell id="awL5sAX0gJgKR-uic9J5-68" value="Pinky" style="text;html=1;strokeColor=none;fillColor=none;align=center;verticalAlign=middle;whiteSpace=wrap;rounded=0;" vertex="1" parent="1">
          <mxGeometry x="940" y="250" width="40" height="20" as="geometry" />
        </mxCell>
        <mxCell id="awL5sAX0gJgKR-uic9J5-69" value="Hank" style="text;html=1;strokeColor=none;fillColor=none;align=center;verticalAlign=middle;whiteSpace=wrap;rounded=0;" vertex="1" parent="1">
          <mxGeometry x="940" y="210" width="40" height="20" as="geometry" />
        </mxCell>
        <mxCell id="awL5sAX0gJgKR-uic9J5-70" value="Pink" style="text;html=1;strokeColor=none;fillColor=none;align=center;verticalAlign=middle;whiteSpace=wrap;rounded=0;" vertex="1" parent="1">
          <mxGeometry x="860" y="250" width="40" height="20" as="geometry" />
        </mxCell>
        <mxCell id="awL5sAX0gJgKR-uic9J5-71" value="Green" style="text;html=1;strokeColor=none;fillColor=none;align=center;verticalAlign=middle;whiteSpace=wrap;rounded=0;" vertex="1" parent="1">
          <mxGeometry x="860" y="210" width="40" height="20" as="geometry" />
        </mxCell>
        <mxCell id="awL5sAX0gJgKR-uic9J5-72" value="BMW" style="text;html=1;strokeColor=none;fillColor=none;align=center;verticalAlign=middle;whiteSpace=wrap;rounded=0;" vertex="1" parent="1">
          <mxGeometry x="770" y="250" width="40" height="20" as="geometry" />
        </mxCell>
        <mxCell id="awL5sAX0gJgKR-uic9J5-73" value="Bimmer&amp;nbsp;" style="text;html=1;strokeColor=none;fillColor=none;align=center;verticalAlign=middle;whiteSpace=wrap;rounded=0;" vertex="1" parent="1">
          <mxGeometry x="940" y="170" width="40" height="20" as="geometry" />
        </mxCell>
        <mxCell id="awL5sAX0gJgKR-uic9J5-74" value="Clunker" style="text;html=1;strokeColor=none;fillColor=none;align=center;verticalAlign=middle;whiteSpace=wrap;rounded=0;" vertex="1" parent="1">
          <mxGeometry x="940" y="130" width="40" height="20" as="geometry" />
        </mxCell>
        <mxCell id="awL5sAX0gJgKR-uic9J5-75" value="Black" style="text;html=1;strokeColor=none;fillColor=none;align=center;verticalAlign=middle;whiteSpace=wrap;rounded=0;" vertex="1" parent="1">
          <mxGeometry x="860" y="170" width="40" height="20" as="geometry" />
        </mxCell>
        <mxCell id="awL5sAX0gJgKR-uic9J5-76" value="BMW" style="text;html=1;strokeColor=none;fillColor=none;align=center;verticalAlign=middle;whiteSpace=wrap;rounded=0;" vertex="1" parent="1">
          <mxGeometry x="770" y="210" width="40" height="20" as="geometry" />
        </mxCell>
        <mxCell id="awL5sAX0gJgKR-uic9J5-77" value="BMW" style="text;html=1;strokeColor=none;fillColor=none;align=center;verticalAlign=middle;whiteSpace=wrap;rounded=0;" vertex="1" parent="1">
          <mxGeometry x="770" y="170" width="40" height="20" as="geometry" />
        </mxCell>
        <mxCell id="awL5sAX0gJgKR-uic9J5-78" value="Yellow" style="text;html=1;strokeColor=none;fillColor=none;align=center;verticalAlign=middle;whiteSpace=wrap;rounded=0;" vertex="1" parent="1">
          <mxGeometry x="860" y="130" width="40" height="20" as="geometry" />
        </mxCell>
        <mxCell id="awL5sAX0gJgKR-uic9J5-79" value="Mel" style="text;html=1;strokeColor=none;fillColor=none;align=center;verticalAlign=middle;whiteSpace=wrap;rounded=0;" vertex="1" parent="1">
          <mxGeometry x="940" y="90" width="40" height="20" as="geometry" />
        </mxCell>
        <mxCell id="awL5sAX0gJgKR-uic9J5-80" value="Rusty" style="text;html=1;strokeColor=none;fillColor=none;align=center;verticalAlign=middle;whiteSpace=wrap;rounded=0;" vertex="1" parent="1">
          <mxGeometry x="940" y="50" width="40" height="20" as="geometry" />
        </mxCell>
        <mxCell id="awL5sAX0gJgKR-uic9J5-81" value="Black" style="text;html=1;strokeColor=none;fillColor=none;align=center;verticalAlign=middle;whiteSpace=wrap;rounded=0;" vertex="1" parent="1">
          <mxGeometry x="860" y="90" width="40" height="20" as="geometry" />
        </mxCell>
        <mxCell id="awL5sAX0gJgKR-uic9J5-82" value="Yugo" style="text;html=1;strokeColor=none;fillColor=none;align=center;verticalAlign=middle;whiteSpace=wrap;rounded=0;" vertex="1" parent="1">
          <mxGeometry x="770" y="130" width="40" height="20" as="geometry" />
        </mxCell>
        <mxCell id="awL5sAX0gJgKR-uic9J5-83" value="Rust" style="text;html=1;strokeColor=none;fillColor=none;align=center;verticalAlign=middle;whiteSpace=wrap;rounded=0;" vertex="1" parent="1">
          <mxGeometry x="860" y="50" width="40" height="20" as="geometry" />
        </mxCell>
        <mxCell id="awL5sAX0gJgKR-uic9J5-84" value="Zippy" style="text;html=1;strokeColor=none;fillColor=none;align=center;verticalAlign=middle;whiteSpace=wrap;rounded=0;" vertex="1" parent="1">
          <mxGeometry x="940" y="10" width="40" height="20" as="geometry" />
        </mxCell>
        <mxCell id="awL5sAX0gJgKR-uic9J5-85" value="Black" style="text;html=1;strokeColor=none;fillColor=none;align=center;verticalAlign=middle;whiteSpace=wrap;rounded=0;" vertex="1" parent="1">
          <mxGeometry x="860" y="10" width="40" height="20" as="geometry" />
        </mxCell>
        <mxCell id="awL5sAX0gJgKR-uic9J5-86" value="Saab" style="text;html=1;strokeColor=none;fillColor=none;align=center;verticalAlign=middle;whiteSpace=wrap;rounded=0;" vertex="1" parent="1">
          <mxGeometry x="770" y="90" width="40" height="20" as="geometry" />
        </mxCell>
        <mxCell id="awL5sAX0gJgKR-uic9J5-87" value="Ford" style="text;html=1;strokeColor=none;fillColor=none;align=center;verticalAlign=middle;whiteSpace=wrap;rounded=0;" vertex="1" parent="1">
          <mxGeometry x="770" y="50" width="40" height="20" as="geometry" />
        </mxCell>
        <mxCell id="awL5sAX0gJgKR-uic9J5-88" value="VW" style="text;html=1;strokeColor=none;fillColor=none;align=center;verticalAlign=middle;whiteSpace=wrap;rounded=0;" vertex="1" parent="1">
          <mxGeometry x="770" y="10" width="40" height="20" as="geometry" />
        </mxCell>
        <mxCell id="awL5sAX0gJgKR-uic9J5-89" value="PetName" style="text;html=1;strokeColor=none;fillColor=none;align=center;verticalAlign=middle;whiteSpace=wrap;rounded=0;" vertex="1" parent="1">
          <mxGeometry x="940" y="-30" width="40" height="20" as="geometry" />
        </mxCell>
        <mxCell id="awL5sAX0gJgKR-uic9J5-90" value="Color" style="text;html=1;strokeColor=none;fillColor=none;align=center;verticalAlign=middle;whiteSpace=wrap;rounded=0;" vertex="1" parent="1">
          <mxGeometry x="860" y="-30" width="40" height="20" as="geometry" />
        </mxCell>
        <mxCell id="awL5sAX0gJgKR-uic9J5-91" value="Make" style="text;html=1;strokeColor=none;fillColor=none;align=center;verticalAlign=middle;whiteSpace=wrap;rounded=0;" vertex="1" parent="1">
          <mxGeometry x="770" y="-30" width="40" height="20" as="geometry" />
        </mxCell>
        <mxCell id="awL5sAX0gJgKR-uic9J5-92" value="CarID" style="text;html=1;strokeColor=none;fillColor=none;align=center;verticalAlign=middle;whiteSpace=wrap;rounded=0;" vertex="1" parent="1">
          <mxGeometry x="690" y="-30" width="40" height="20" as="geometry" />
        </mxCell>
        <mxCell id="awL5sAX0gJgKR-uic9J5-93" value="32" style="text;html=1;strokeColor=none;fillColor=none;align=center;verticalAlign=middle;whiteSpace=wrap;rounded=0;" vertex="1" parent="1">
          <mxGeometry x="690" y="10" width="40" height="20" as="geometry" />
        </mxCell>
        <mxCell id="awL5sAX0gJgKR-uic9J5-94" value="83" style="text;html=1;strokeColor=none;fillColor=none;align=center;verticalAlign=middle;whiteSpace=wrap;rounded=0;" vertex="1" parent="1">
          <mxGeometry x="690" y="50" width="40" height="20" as="geometry" />
        </mxCell>
        <mxCell id="awL5sAX0gJgKR-uic9J5-95" value="872" style="text;html=1;strokeColor=none;fillColor=none;align=center;verticalAlign=middle;whiteSpace=wrap;rounded=0;" vertex="1" parent="1">
          <mxGeometry x="690" y="90" width="40" height="20" as="geometry" />
        </mxCell>
        <mxCell id="awL5sAX0gJgKR-uic9J5-96" value="888" style="text;html=1;strokeColor=none;fillColor=none;align=center;verticalAlign=middle;whiteSpace=wrap;rounded=0;" vertex="1" parent="1">
          <mxGeometry x="690" y="130" width="40" height="20" as="geometry" />
        </mxCell>
        <mxCell id="awL5sAX0gJgKR-uic9J5-97" value="1000" style="text;html=1;strokeColor=none;fillColor=none;align=center;verticalAlign=middle;whiteSpace=wrap;rounded=0;" vertex="1" parent="1">
          <mxGeometry x="690" y="170" width="40" height="20" as="geometry" />
        </mxCell>
        <mxCell id="awL5sAX0gJgKR-uic9J5-98" value="1011" style="text;html=1;strokeColor=none;fillColor=none;align=center;verticalAlign=middle;whiteSpace=wrap;rounded=0;" vertex="1" parent="1">
          <mxGeometry x="690" y="210" width="40" height="20" as="geometry" />
        </mxCell>
        <mxCell id="awL5sAX0gJgKR-uic9J5-99" value="2911" style="text;html=1;strokeColor=none;fillColor=none;align=center;verticalAlign=middle;whiteSpace=wrap;rounded=0;" vertex="1" parent="1">
          <mxGeometry x="690" y="250" width="40" height="20" as="geometry" />
        </mxCell>
      </root>
    </mxGraphModel>
  </diagram>
</mxfile>
